<?xml version="1.0" encoding="UTF-8"?><svg id="Layer_2" xmlns="http://www.w3.org/2000/svg" viewBox="0 0 76.35 93.63"><defs><style>.cls-1{fill:#fff;}</style></defs><g id="_ú_ŠE_n_"><path class="cls-1" d="m67.15,26.65H9.2c-.54,0-.97-.43-.97-.97s.43-.97.97-.97h57.95c.54,0,.97.43.97.97s-.43.97-.97.97Z"/><path class="cls-1" d="m30.74,44.63c-.27,0-.55-.12-.74-.34-.94-1.12-1.82-2.29-2.62-3.5-.41-.64-.81-1.29-1.19-1.97-2.03-3.62-3.39-7.62-4.03-11.86-.06-.39-.11-.78-.16-1.16-.55-4.59-.2-9.14,1.03-13.53,1.14-4.01,3-7.84,5.53-11.44.31-.44.91-.54,1.35-.24.44.31.54.91.24,1.35-2.41,3.42-4.17,7.06-5.24,10.81-1.18,4.18-1.5,8.48-.98,12.82.04.37.09.73.15,1.09.61,4.02,1.89,7.79,3.81,11.21.35.64.73,1.25,1.12,1.85.75,1.14,1.58,2.26,2.47,3.31.35.41.29,1.02-.11,1.36-.18.15-.4.23-.63.23Z"/><path class="cls-1" d="m45.61,44.63c-.22,0-.45-.08-.63-.23-.41-.35-.46-.96-.11-1.37.89-1.05,1.73-2.17,2.47-3.31.39-.59.76-1.2,1.1-1.84.01-.02.03-.05.04-.07,1.9-3.41,3.18-7.16,3.78-11.15.06-.37.1-.73.14-1.09.52-4.36.2-8.66-.97-12.78-1.08-3.8-2.84-7.43-5.25-10.85-.31-.44-.2-1.04.24-1.35.44-.31,1.04-.2,1.35.24,2.53,3.6,4.39,7.43,5.51,11.39,1.25,4.42,1.6,8.97,1.04,13.58-.04.38-.09.77-.15,1.16-.64,4.23-1.99,8.21-4.01,11.82-.02.03-.03.06-.05.09-.36.66-.75,1.29-1.15,1.9-.79,1.21-1.67,2.39-2.62,3.51-.19.23-.46.34-.74.34Z"/><path class="cls-1" d="m38.17,30.85c-.54,0-.97-.43-.97-.97V6.63c0-.54.43-.97.97-.97s.97.43.97.97v23.26c0,.54-.43.97-.97.97Z"/><path class="cls-1" d="m38.17,43.1c-.54,0-.97-.43-.97-.97v-1.46c0-.54.43-.97.97-.97s.97.43.97.97v1.46c0,.54-.43.97-.97.97Z"/><path class="cls-1" d="m49.1,48.52c-.35,0-.7-.2-.87-.54-.24-.48-.04-1.06.44-1.3.38-.19.76-.39,1.13-.6,2.23-1.26,4.27-2.73,6.16-4.44l.26-.24c.63-.58,1.24-1.19,1.84-1.83l.28-.31c.35-.41.96-.45,1.37-.1.4.35.45.96.1,1.37l-.22.24c-.74.79-1.39,1.44-2.05,2.05l-.29.26c-1.99,1.8-4.15,3.36-6.4,4.63-.52.29-.93.51-1.33.71-.14.07-.29.1-.43.1Z"/><path class="cls-1" d="m27.25,48.52c-.14,0-.29-.03-.43-.1-.41-.2-.81-.42-1.21-.64-2.36-1.32-4.51-2.88-6.52-4.7l-.25-.22s-.07-.07-.11-.1c-.64-.59-1.26-1.22-1.87-1.87-.11-.12-.23-.24-.33-.37-.33-.39-.31-.97.06-1.33.87-.84,1.35-1.97,1.35-3.18,0-2.44-1.99-4.42-4.43-4.42-.63,0-1.25.13-1.8.39-.47.22-1.05.02-1.28-.46-.86-1.77-1.59-3.64-2.17-5.53-.02-.04-.03-.09-.03-.13-.2-.64-.36-1.28-.49-1.91-.46-2.15-.59-4.33-.39-6.46.23-2.33.84-4.55,1.82-6.6.3-.63.63-1.23.99-1.81l.25-.38c.4-.64.89-1.31,1.48-2.02l.35-.4s.13-.15.13-.15c.57-.63,1.19-1.22,1.84-1.77l.25-.21c.56-.45,1.05-.8,1.54-1.14.58-.38,1.17-.72,1.76-1.03.78-.39,1.57-.73,2.35-1,1.65-.57,3.34-.89,5.02-.95,1.46-.07,2.96.08,4.42.42.59.14,1.2.31,1.79.52.1.03.23.08.36.14.97.36,1.95.83,2.86,1.38,1.09.65,2.12,1.42,3.07,2.29.05.03.16.14.26.24.08.07.17.15.26.24.1-.09.19-.18.29-.27.05-.06.13-.13.22-.2,0,0,.01-.01.02-.02.99-.89,2-1.64,3.08-2.29.83-.5,1.72-.94,2.65-1.31.18-.07.36-.14.55-.21.59-.21,1.2-.39,1.8-.52,1.46-.34,2.95-.48,4.43-.42,1.68.06,3.37.38,5.01.95.48.17.95.35,1.42.56.31.14.63.29.93.45,2.97,1.52,5.54,3.84,7.39,6.73l.23.36c.36.6.68,1.19.98,1.82,1.9,3.99,2.4,8.51,1.43,13.08-.13.63-.29,1.27-.49,1.91,0,.04-.02.07-.03.1-.4,1.29-.86,2.56-1.38,3.77-.26.61-.52,1.2-.81,1.78-.24.48-.82.67-1.3.43-.48-.24-.67-.82-.43-1.3.27-.54.52-1.1.76-1.67.48-1.14.92-2.33,1.29-3.54,0-.03.01-.06.02-.09.19-.6.34-1.2.46-1.8.88-4.15.43-8.24-1.28-11.84-.27-.56-.56-1.11-.89-1.64l-.2-.31c-1.67-2.6-3.98-4.7-6.67-6.07-.28-.15-.55-.27-.82-.39-.41-.18-.83-.35-1.26-.5-1.46-.51-2.96-.79-4.46-.85-1.3-.06-2.62.07-3.91.37-.53.12-1.06.27-1.58.46-.17.06-.33.12-.49.19-.84.33-1.63.72-2.37,1.17-.95.57-1.84,1.23-2.72,2.01-.04.04-.09.08-.13.12-.01.01-.14.13-.15.14-.31.28-.6.58-.9.89-.19.19-.52.25-.71.3-.27,0-.52-.11-.7-.31-.29-.31-.59-.6-.89-.87-.02-.02-.21-.19-.23-.21-.85-.78-1.78-1.48-2.76-2.06-.81-.49-1.68-.91-2.59-1.25-.12-.05-.19-.08-.27-.1-.54-.19-1.07-.34-1.59-.47-1.29-.31-2.6-.43-3.91-.38-1.5.05-2.99.33-4.46.84-.71.25-1.42.55-2.1.89-.52.27-1.06.58-1.57.92-.44.3-.89.62-1.33.97l-.29.25c-.6.5-1.16,1.03-1.67,1.59l-.43.49c-.53.64-.97,1.24-1.35,1.84l-.24.37c-.3.49-.6,1.04-.87,1.61-.88,1.85-1.43,3.86-1.64,5.95-.18,1.93-.06,3.91.36,5.88.12.6.28,1.2.47,1.8.01.04.02.07.03.11.46,1.51,1.03,2.99,1.67,4.42.55-.15,1.12-.23,1.7-.23,3.51,0,6.36,2.85,6.36,6.36,0,1.42-.46,2.76-1.31,3.87.51.53,1.02,1.03,1.54,1.52.02.02.03.03.05.05l.13.12c1.99,1.8,4.02,3.27,6.14,4.46.48.27.86.47,1.24.66.48.24.68.82.44,1.3-.17.34-.51.54-.87.54Z"/><path class="cls-1" d="m38.17,14.79c-4.26,0-8.62-.36-12.96-1.06-.67-.11-1.33-.22-1.97-.34-4.2-.78-8.35-1.86-12.33-3.24-.51-.17-.78-.73-.6-1.23.17-.51.73-.77,1.23-.6,3.9,1.34,7.95,2.41,12.05,3.16.63.12,1.28.23,1.93.34,8.4,1.36,16.67,1.37,25.03.05.63-.1,1.24-.2,1.84-.31,4.23-.77,8.41-1.86,12.42-3.24.5-.17,1.06.09,1.23.6.18.51-.09,1.06-.6,1.23-4.1,1.41-8.38,2.52-12.7,3.31-.61.11-1.25.22-1.89.32-4.24.67-8.5,1.01-12.68,1.01Z"/><path class="cls-1" d="m58.78,41.2c-.08,0-.16,0-.24-.03-1.97-.51-4.04-.97-6.14-1.35-.61-.11-1.24-.22-1.88-.32-.49-.08-.91-.14-1.33-.2-2.07-.29-4.17-.51-6.26-.64-.53-.03-.94-.49-.91-1.03.03-.53.48-.92,1.03-.91,2.14.13,4.29.35,6.39.65.44.06.87.12,1.31.19.72.11,1.36.22,2,.34,2.15.39,4.26.86,6.28,1.38.52.13.83.66.69,1.18-.11.44-.51.73-.94.73Z"/><path class="cls-1" d="m17.58,41.2c-.43,0-.82-.29-.94-.72-.14-.52.17-1.05.69-1.18,1.94-.51,3.92-.95,5.9-1.31.65-.12,1.32-.24,1.98-.34.55-.09,1.12-.17,1.69-.26,2.13-.3,4.28-.52,6.4-.64.53-.02.99.38,1.02.91.03.53-.38.99-.91,1.02-2.07.12-4.17.33-6.24.63-.56.08-1.12.17-1.66.25-.65.1-1.3.22-1.92.33-1.94.35-3.88.78-5.77,1.28-.08.02-.16.03-.24.03Z"/><path class="cls-1" d="m13.52,42.38c-3.51,0-6.36-2.85-6.36-6.36,0-2.51,1.48-4.79,3.77-5.8.49-.22,1.06,0,1.28.49.22.49,0,1.06-.49,1.28-1.59.71-2.62,2.29-2.62,4.03,0,2.44,1.98,4.42,4.42,4.42,1.15,0,2.25-.44,3.07-1.24.39-.37,1-.36,1.37.02.37.38.36,1-.02,1.37-1.19,1.15-2.76,1.79-4.42,1.79Z"/><path class="cls-1" d="m17.19,93.63c-.96,0-1.86-.37-2.55-1.04-.66-.64-1.05-1.49-1.12-2.4-.06.9-.45,1.76-1.12,2.4-.71.69-1.72,1.06-2.63,1.04-.98-.02-1.9-.42-2.58-1.14-.68-.71-1.04-1.65-1.02-2.64l-.09-21.95.02-2.93-.19,1.35c-.09.77-.48,1.47-1.09,1.97-.62.5-1.39.72-2.19.63-1.18-.13-2.17-.97-2.51-2.12-.11-.37-.14-.77-.1-1.17l1.44-16.07c.23-2.17.43-4.08,3.55-5.71,1.4-.73,4.36-1.95,8.51-1.95,3.93,0,6.16.88,7.82,1.75,3.06,1.59,3.53,3.28,4.18,5.63l4.7,14.98c.52,1.55-.31,3.24-1.85,3.76-1.55.53-3.24-.31-3.77-1.87l-3.71-10.12.07,11.85-.09,21.99c.02.96-.34,1.9-1.02,2.62-.68.72-1.6,1.12-2.58,1.14-.02,0-.05,0-.08,0Zm-3.67-26.58c.52,0,.95.41.97.93l.96,21.96c.01.5.2.94.54,1.27.33.32.75.49,1.21.49.01,0,.02,0,.04,0,.47,0,.9-.2,1.22-.54.32-.34.5-.79.49-1.26l.09-22-.11-17.5c0-.5.37-.92.87-.97.5-.05.95.28,1.05.76l5.59,15.33c.19.56.78.86,1.31.68.54-.18.82-.77.64-1.32,0,0,0-.01,0-.02l-4.71-15.02c-.62-2.24-.9-3.26-3.22-4.46-1.53-.79-3.42-1.53-6.93-1.53-3.74,0-6.38,1.08-7.62,1.73-2.2,1.14-2.3,2.11-2.5,4.05l-1.45,16.2c-.02.16,0,.3.03.43.12.41.46.7.87.74.28.03.54-.05.75-.22.22-.17.35-.42.39-.7l2.21-16.02c.07-.51.51-.87,1.03-.83.51.04.9.46.9.97l-.11,17.71.09,21.97c0,.5.16.94.49,1.29.32.34.76.53,1.22.54.43.03.91-.17,1.24-.49.34-.33.53-.77.54-1.24l.96-21.98c.02-.52.45-.93.97-.93Z"/><path class="cls-1" d="m62.82,42.38c-3.51,0-6.36-2.85-6.36-6.36s2.86-6.36,6.36-6.36,6.36,2.85,6.36,6.36-2.86,6.36-6.36,6.36Zm0-10.79c-2.44,0-4.43,1.98-4.43,4.43s1.99,4.43,4.43,4.43,4.43-1.98,4.43-4.43-1.99-4.43-4.43-4.43Z"/><path class="cls-1" d="m66.5,93.63c-.96,0-1.86-.37-2.55-1.04-.67-.64-1.06-1.5-1.12-2.42-.06.91-.45,1.78-1.13,2.43-.71.68-1.68,1.04-2.62,1.03-.99-.02-1.9-.42-2.58-1.14-.68-.71-1.04-1.65-1.02-2.64l-.09-21.95.07-11.86-3.72,10.14c-.25.73-.78,1.34-1.49,1.69-.72.36-1.52.41-2.27.15-.75-.25-1.35-.79-1.7-1.5-.35-.71-.4-1.52-.14-2.28l4.7-15c.64-2.31,1.11-4.01,4.17-5.6,1.66-.86,3.89-1.75,7.82-1.75,4.15,0,7.12,1.22,8.51,1.95,3.12,1.62,3.32,3.54,3.53,5.57l1.46,16.22c.04.4,0,.79-.1,1.17-.34,1.15-1.32,1.98-2.51,2.11-.8.08-1.56-.14-2.18-.63-.62-.5-1.01-1.2-1.1-1.99l-.18-1.32.02,2.92-.09,21.99c.02.97-.34,1.9-1.02,2.62-.68.72-1.6,1.12-2.59,1.14-.02,0-.05,0-.08,0Zm-3.67-26.58c.52,0,.95.41.97.93l.96,21.96c.01.5.2.94.54,1.27.33.32.75.49,1.2.49.01,0,.02,0,.04,0,.47,0,.9-.2,1.22-.54.32-.34.5-.79.49-1.26l.09-22-.11-17.7c0-.51.39-.94.9-.97.49-.03.96.33,1.03.83l2.21,16c.03.3.17.55.39.72.22.17.49.24.75.22.41-.05.75-.34.87-.74.04-.13.05-.27.04-.42,0,0,0-.01,0-.02l-1.44-16.09c-.21-2.05-.31-3.02-2.51-4.16-1.24-.64-3.88-1.73-7.62-1.73-3.51,0-5.4.73-6.93,1.53-2.31,1.2-2.59,2.21-3.21,4.43l-4.72,15.05c-.1.29-.08.57.04.82.12.25.33.43.59.52.26.09.54.07.78-.05.25-.12.43-.34.52-.6l5.57-15.19c.1-.49.59-.9,1.06-.85.5.05.89.4.89.9l-.11,17.51.09,21.97c0,.5.16.95.49,1.29.32.34.76.53,1.22.54.46.03.9-.16,1.24-.48.34-.33.53-.77.54-1.25l.96-21.98c.02-.52.45-.93.97-.93Z"/><path class="cls-1" d="m38.17,41.64c-3.51,0-6.36-2.85-6.36-6.36s2.86-6.36,6.36-6.36,6.36,2.85,6.36,6.36-2.86,6.36-6.36,6.36Zm0-10.79c-2.44,0-4.43,1.98-4.43,4.43s1.99,4.43,4.43,4.43,4.43-1.98,4.43-4.43-1.99-4.43-4.43-4.43Z"/><path class="cls-1" d="m41.84,92.89c-.95,0-1.85-.37-2.54-1.03-.66-.64-1.06-1.49-1.12-2.41-.06.91-.46,1.77-1.13,2.42-.71.68-1.65,1.02-2.62,1.02-2.03-.04-3.65-1.73-3.61-3.78l-.09-21.96.02-2.94-.19,1.36c-.09.77-.48,1.48-1.1,1.97-.62.5-1.39.73-2.18.63-.04,0-.09-.01-.14-.03-.45-.08-.8-.48-.8-.95,0-.54.43-.97.97-.97h0c.12,0,.25.02.36.07.1-.02.37-.09.58-.27.22-.17.35-.42.39-.7l2.21-16.03c.07-.51.53-.88,1.03-.83.51.04.9.46.9.97l-.11,17.71.09,21.97c-.02,1,.75,1.8,1.71,1.82.44.03.9-.16,1.23-.48.34-.33.54-.77.55-1.25l.97-21.98c.02-.52.45-.93.97-.93h0c.52,0,.95.41.97.93l.96,21.96c.01.5.2.94.54,1.26.34.33.78.51,1.24.49.97-.02,1.73-.83,1.71-1.8l.09-22-.11-17.7c0-.51.39-.94.9-.97.51-.04.96.33,1.03.83l2.2,15.96s0,.05.01.08c.07.56.58.95,1.13.91.1-.03.1-.02.21-.02.54,0,.98.43.98.97,0,.51-.38.92-.87.97-.02,0-.04,0-.06,0-1.58.19-3.07-.95-3.3-2.53-.01-.07-.02-.13-.02-.2l-.18-1.24.02,2.94-.09,21.99c.04,2.02-1.58,3.71-3.61,3.75-.03,0-.06,0-.09,0Z"/><path class="cls-1" d="m49.87,56.53c-.5,0-.92-.38-.96-.88l-.59-6.65c-.05-.44-.09-.87-.16-1.27-.08-.46-.18-.8-.32-1.09-.21-.43-.64-1.07-2.03-1.81-.17-.09-.37-.19-.59-.29-1.44-.65-3.84-1.44-7.03-1.44s-5.59.78-7.04,1.44c-.21.1-.41.19-.59.29-1.89.98-2.18,1.89-2.35,2.88-.07.41-.12.84-.17,1.29l-.6,6.63c-.05.52-.4.94-1.01.88-.52-.02-.93-.45-.93-.97l.6-6.74c.05-.52.1-.99.19-1.44.24-1.43.81-2.95,3.36-4.27.2-.1.43-.21.67-.33,1.64-.74,4.32-1.62,7.85-1.62s6.21.88,7.84,1.61c.25.12.48.23.68.33,1.45.76,2.36,1.61,2.87,2.67.23.46.39.98.49,1.62.08.44.13.91.18,1.41l.6,6.66c.05.53-.35,1-.88,1.05-.03,0-.06,0-.09,0Z"/></g></svg>