<?xml version="1.0" encoding="UTF-8"?><svg id="Layer_2" xmlns="http://www.w3.org/2000/svg" viewBox="0 0 84.45 96.64"><defs><style>.cls-1{fill:#fff;}</style></defs><g id="_ú_ŠE_n_"><path class="cls-1" d="m75.19,28.96H9.26c-.54,0-.97-.43-.97-.97s.43-.97.97-.97h65.93c.54,0,.97.43.97.97s-.43.97-.97.97Z"/><path class="cls-1" d="m29.46,48.55c-.36,0-.71-.2-.87-.55-.66-1.38-1.25-2.8-1.74-4.22-.16-.45-.31-.92-.46-1.4-1.3-4.26-1.97-8.8-1.97-13.5s.63-9.06,1.88-13.21c.17-.58.35-1.15.55-1.7,1.58-4.55,3.91-8.74,6.91-12.46.34-.42.95-.48,1.36-.14.42.34.48.95.14,1.36-2.87,3.54-5.08,7.54-6.59,11.88-.19.53-.35,1.07-.52,1.62-1.19,3.96-1.8,8.22-1.8,12.64s.63,8.86,1.88,12.93c.14.45.28.9.43,1.33.47,1.36,1.03,2.71,1.66,4.03.23.48.03,1.06-.46,1.29-.13.06-.28.1-.42.1Z"/><path class="cls-1" d="m42.23,46.24c-.54,0-.97-.43-.97-.97V7.36c0-.54.43-.97.97-.97s.97.43.97.97v37.92c0,.54-.43.97-.97.97Z"/><path class="cls-1" d="m55.12,47.42c-.13,0-.26-.03-.39-.08-.49-.21-.71-.79-.5-1.28.43-.98.83-1.98,1.18-2.99.16-.46.32-.92.46-1.38,1.32-4.17,1.98-8.47,1.99-12.82.01-4.27-.61-8.5-1.86-12.57-.17-.55-.35-1.1-.54-1.64-1.52-4.33-3.72-8.32-6.54-11.85-.33-.42-.26-1.03.16-1.36.42-.33,1.03-.26,1.36.15,2.95,3.71,5.25,7.88,6.85,12.42.2.57.39,1.15.56,1.72,1.3,4.25,1.95,8.67,1.94,13.13,0,4.55-.7,9.05-2.08,13.4-.14.48-.31.97-.48,1.45-.37,1.05-.79,2.09-1.24,3.12-.16.36-.52.58-.89.58Z"/><path class="cls-1" d="m23.49,50.44c-.21,0-.42-.07-.6-.21-.72-.57-1.44-1.18-2.14-1.81l-.33-.29c-.74-.69-1.47-1.42-2.18-2.18-.66-.69-1.3-1.43-1.92-2.2-.38-.47-.75-.94-1.12-1.44-2.95-4-5.18-8.42-6.63-13.16,0-.02-.01-.05-.02-.07-.23-.73-.41-1.46-.57-2.18-.52-2.44-.66-4.89-.43-7.28.25-2.61.94-5.1,2.04-7.41.35-.74.72-1.4,1.12-2.04.07-.12.17-.27.27-.42.48-.76,1.05-1.53,1.68-2.28.1-.13.23-.27.36-.42l.16-.18c.69-.75,1.38-1.41,2.08-2l.2-.17s.16-.14.17-.14c.54-.43,1.09-.82,1.64-1.2.65-.42,1.31-.81,1.98-1.16.83-.43,1.71-.8,2.63-1.12C23.74.44,25.64.08,27.52.02c2.4-.09,4.72.26,6.97,1.06l.4.15c1.06.39,2.16.92,3.22,1.55,1.21.74,2.37,1.6,3.45,2.57.07.06.17.15.27.24.13.12.27.25.4.38.14-.13.27-.26.41-.39.09-.09.2-.18.31-.27,1.05-.96,2.21-1.82,3.41-2.54.97-.58,1.97-1.07,2.98-1.47l.6-.23C52.2.28,54.55-.08,56.92.02c1.88.07,3.78.43,5.64,1.07.53.18,1.06.39,1.58.62.36.17.7.33,1.04.5,3.35,1.71,6.22,4.32,8.3,7.56.09.13.18.28.27.43.39.64.75,1.31,1.09,2,2.14,4.5,2.7,9.58,1.61,14.69-.14.71-.33,1.43-.54,2.15,0,.04-.02.08-.03.12-.45,1.44-.97,2.87-1.55,4.24-1.35,3.19-3.06,6.18-5.09,8.91-.36.49-.74.97-1.12,1.44-.62.77-1.26,1.5-1.92,2.2-.71.76-1.44,1.49-2.19,2.17-.09.09-.21.19-.32.29-.46.41-.93.82-1.41,1.21-.42.34-1.02.28-1.36-.14s-.28-1.02.14-1.36c.45-.37.9-.76,1.34-1.16l.29-.26c.73-.67,1.42-1.36,2.1-2.08.63-.67,1.24-1.37,1.83-2.1.37-.45.72-.9,1.07-1.38,1.94-2.61,3.58-5.47,4.86-8.51.54-1.29,1.03-2.63,1.46-3.98,0-.04.02-.08.03-.12.21-.68.38-1.37.52-2.05,1-4.7.5-9.35-1.46-13.46-.31-.63-.64-1.25-1.01-1.86-.08-.13-.15-.25-.23-.36-1.9-2.96-4.52-5.34-7.57-6.9-.32-.17-.63-.31-.94-.45-.46-.2-.94-.39-1.42-.56-1.67-.58-3.38-.91-5.07-.97-2.12-.08-4.23.24-6.26.95l-.57.22c-.89.35-1.8.8-2.68,1.33-1.1.66-2.13,1.43-3.14,2.34-.12.1-.19.16-.25.22-.36.33-.69.66-1.03,1.01-.18.19-.44.3-.7.3-.22.04-.52-.11-.71-.31-.33-.35-.67-.68-1.01-.99l-.23-.21c-1.01-.91-2.07-1.7-3.17-2.37-.95-.57-1.94-1.05-2.93-1.41l-.3-.12c-2.05-.72-4.15-1.04-6.28-.96-1.7.06-3.41.38-5.06.96-.83.29-1.63.63-2.38,1.02-.61.32-1.21.67-1.8,1.05-.51.34-1.01.71-1.51,1.1l-.34.28c-.64.53-1.27,1.13-1.88,1.8l-.15.18c-.1.12-.21.24-.31.36-.59.7-1.11,1.41-1.56,2.12-.09.13-.16.25-.23.36-.39.62-.72,1.23-1.03,1.87-1,2.11-1.63,4.38-1.86,6.77-.21,2.19-.08,4.44.4,6.68.15.67.32,1.36.53,2.05,0,.02.01.04.02.06,0,.01,0,.03.01.04,1.38,4.51,3.5,8.72,6.31,12.52.35.47.71.92,1.07,1.37.59.73,1.2,1.43,1.84,2.1.68.73,1.38,1.42,2.08,2.08l.19.17c.78.7,1.46,1.28,2.15,1.82.42.33.49.94.16,1.36-.19.24-.47.37-.76.37Z"/><path class="cls-1" d="m42.23,18.74c-5.03,0-10.17-.54-15.27-1.59-.22-.04-.45-.09-.68-.14-.81-.17-1.63-.37-2.43-.56-4.38-1.07-8.76-2.53-13.01-4.34-.49-.21-.72-.78-.51-1.27.21-.49.78-.72,1.27-.51,4.15,1.77,8.43,3.19,12.71,4.24.78.19,1.57.38,2.37.55.22.05.43.1.65.14,9.88,2.05,19.65,2.06,29.48.07l.62-.13c.77-.16,1.52-.33,2.25-.51,4.44-1.07,8.87-2.54,13.15-4.36.61-.26,1.35.23,1.35.89,0,.42-.27.79-.65.92-4.36,1.85-8.87,3.34-13.4,4.43-.75.18-1.53.36-2.32.52l-.62.13c-4.99,1.01-10.03,1.52-14.96,1.52Z"/><path class="cls-1" d="m68.02,43.3c-.12,0-.24-.02-.36-.07-2.28-.92-4.69-1.75-7.18-2.48-.79-.23-1.6-.45-2.41-.65l-.67-.16c-10.18-2.47-20.37-2.46-30.65.08-.26.06-.52.13-.76.19-.85.21-1.68.45-2.49.69-.02,0-.04,0-.05.01-2.29.68-4.53,1.46-6.65,2.32-.49.2-1.06-.04-1.26-.54-.2-.5.04-1.06.54-1.26,2.19-.89,4.51-1.69,6.88-2.39.02,0,.04-.01.06-.01.82-.24,1.66-.48,2.51-.69.25-.07.52-.13.79-.2,10.56-2.61,21.08-2.63,31.56-.08l.67.16c.85.21,1.68.44,2.5.68,2.54.74,5.02,1.6,7.36,2.54.5.2.74.76.54,1.26-.15.38-.52.61-.9.61Z"/><path class="cls-1" d="m48.55,96.14c-.31,0-.61-.05-.91-.15-2.15-.75-5.09-2.69-5.21-2.77-.45-.3-.57-.9-.27-1.34s.9-.57,1.34-.27c.03.02,2.86,1.89,4.77,2.56.67.23,1.49-.51,1.95-1.29.55-.92.68-1.95.29-2.3-.39-.36-.43-.97-.06-1.37.36-.4.97-.42,1.37-.07,1.29,1.17.97,3.22.07,4.72-.87,1.46-2.11,2.29-3.35,2.29Z"/><path class="cls-1" d="m54.36,92.53c-.81,0-1.63-.23-2.38-.77-.96-.69-1.69-1.39-2.46-2.13-.56-.54-1.16-1.11-1.92-1.75-.41-.34-.46-.95-.12-1.36.34-.41.96-.46,1.36-.12.8.67,1.43,1.27,2.02,1.83.76.72,1.41,1.35,2.25,1.95,1.14.82,2.66.26,3.52-.67.32-.35,1.28-1.58.23-2.81-.35-.41-.3-1.02.1-1.37.41-.35,1.02-.3,1.37.1,1.35,1.57,1.24,3.74-.27,5.38-.93,1.01-2.29,1.71-3.7,1.71Z"/><path class="cls-1" d="m.97,55.7C.43,55.7,0,55.27,0,54.73s.43-.97.97-.97l14.94-.03c1.51,0,3.86-.88,6.34-1.8l1.33-.49c1.12-.41,2.27-.82,3.45-1.17,3.2-.98,5.77-1.34,8.11-1.13.52.05.91.49.88,1.01-.02.52-.44.93-.96.93h0c-2.16-.19-4.5.14-7.46,1.05-1.14.34-2.26.74-3.34,1.14l-1.32.49c-2.77,1.03-5.16,1.92-7.02,1.92l-14.94.03h0Z"/><path class="cls-1" d="m18.55,86.68c-.39,0-.8-.08-1.22-.24-2.05-.77-4.17-3.4-3.95-5.95.2-2.22,5.05-7.92,7.14-9.18,1.98-1.18,4.37-.32,5.71,1.14,1.28,1.4,1.51,3.14.58,4.43-.59.81-1.48,2.07-2.45,3.46-1.29,1.83-2.72,3.86-3.8,5.33-.48.66-1.2,1.01-2.01,1.01Zm4.02-13.99c-.36,0-.72.09-1.05.28-1.86,1.11-6.09,6.36-6.21,7.69h0c-.14,1.61,1.33,3.45,2.7,3.97.72.27.92,0,.99-.1,1.07-1.47,2.5-3.49,3.78-5.31.98-1.39,1.88-2.66,2.47-3.48.58-.8-.26-1.79-.43-1.98-.56-.62-1.41-1.07-2.24-1.07Zm-8.22,7.89h.02-.02Z"/><path class="cls-1" d="m24.37,91.13c-.06,0-.12,0-.18,0-2.07-.07-4.22-1.37-5.11-3.07-.64-1.24-.58-2.57.19-3.76.29-.45.89-.58,1.34-.29.45.29.58.89.29,1.34-.39.6-.42,1.19-.1,1.81.56,1.07,2.11,1.98,3.46,2.03.48.02,1.18-.08,1.53-.65.32-.52.76-1.19,1.25-1.94,1.59-2.42,3.99-6.08,4.42-7.95.15-.69-.51-1.6-1.54-2.12-.46-.23-2.04-.89-3.17.41-.35.41-.96.45-1.37.1-.4-.35-.45-.96-.1-1.37,1.34-1.55,3.5-1.89,5.51-.87,1.86.94,2.91,2.7,2.55,4.28-.5,2.21-2.92,5.9-4.68,8.58-.48.74-.91,1.39-1.22,1.9-.63,1.02-1.71,1.57-3.07,1.57Z"/><path class="cls-1" d="m39.21,96.64c-1.45,0-3.13-.51-4.33-1.27-1.38-.87-2.02-2.03-1.76-3.19.12-.52.64-.85,1.16-.73.52.12.85.64.73,1.16-.07.29.29.72.9,1.11,1.6,1.01,3.81,1.18,4.34.76,1.45-1.16,3.32-6.17,3.34-8.35,0-.63-.76-1.44-1.86-1.96-1.13-.54-2.35-.64-2.83-.24-.41.34-1.02.28-1.37-.13-.34-.41-.28-1.02.13-1.36,1.33-1.1,3.46-.7,4.89-.02,1.84.87,2.97,2.3,2.96,3.73-.02,2.5-2,8.2-4.07,9.85-.56.44-1.36.63-2.25.63Z"/><path class="cls-1" d="m31.27,95.65c-1.05,0-2.17-.35-3.16-.92-2.56-1.49-3.53-4.02-2.35-6.15.26-.47.85-.64,1.32-.38.47.26.64.85.38,1.32-1.05,1.9,1.35,3.37,1.63,3.53,1.26.73,2.87.97,3.4.11,1.92-3.14,4.83-8.65,4.97-10.94.04-.64-.63-1.42-1.66-1.94-1.13-.57-2.35-.66-2.91-.2-.41.34-1.02.28-1.36-.14-.34-.41-.27-1.03.14-1.36,1.18-.96,3.15-.97,5.01-.02,1.75.9,2.79,2.34,2.71,3.78-.2,3.57-5.04,11.51-5.25,11.85-.64,1.04-1.7,1.47-2.87,1.47Z"/><path class="cls-1" d="m82.37,78.15c-3.97,0-15.38-.05-15.38-.05v-1.94s14.49.06,16.49.04h0c.53,0,.97.43.97.96,0,.54-.43.97-.96.98-.23,0-.61,0-1.12,0Z"/><path class="cls-1" d="m63.14,81.35c-.63,0-1.23-.17-1.76-.51-.45-.29-.59-.89-.3-1.34.29-.45.89-.58,1.34-.3.39.25.85.27,1.39.08.99-.36,1.92-1.36,2.26-2.45.21-.65.29-1.58-.5-2.38-1.62-1.62-4.06-3.81-6.67-6.02-1.52-1.28-3.11-2.56-4.63-3.74-.91-.69-1.78-1.35-2.61-1.93-1.4-.99-2.55-1.72-3.43-2.17-.26-.07-2.21-.43-4.34-.75-1.56-.23-2.83-.37-3.47-.38-.14,0-.23,0-.29,0-1.54.47-3.69,2.63-5.78,4.72l-.27.27c-.74.74-1.48,1.48-2.23,2.17-.03.03-.17.14-.2.17-1.97,1.71-4.82.97-6.46-.61-1.78-1.73-1.99-4.11-.52-5.94.37-.46.82-1.03,1.32-1.68,1.6-2.06,3.34-4.24,5.19-6.21,0,0,.01-.01.02-.02h0c1.15-1.22,2.25-2.23,3.25-3.01.02-.02.05-.04.08-.06.85-.65,1.66-1.15,2.41-1.47.71-.3,1.81-.45,3.48-.49,1.09-.01,2.34.01,3.66.08,4.83.26,10.51,1,11.93,1.23.6.1,1.34.35,1.85.55.91.34,2.09.85,3.39,1.47,2.33,1.1,4.65,2.35,6.03,3.16h4.75c2.08-.02,4.49-.03,6.57-.03,2.42-.01,4.39-.02,4.87-.02.54,0,.97.43.97.97s-.43.97-.97.97c-.48,0-2.45,0-4.87.02-2.08,0-4.48,0-6.57.02h-5.03c-.18.01-.35-.04-.5-.13-1.26-.76-3.7-2.08-6.1-3.21-1.26-.6-2.37-1.09-3.24-1.41-.82-.31-1.28-.41-1.47-.45-1.39-.22-6.97-.95-11.72-1.21-1.27-.07-2.48-.1-3.52-.08-1.8.04-2.5.23-2.75.33-.62.27-1.31.7-2.06,1.28-.02.02-.05.04-.07.05-.9.71-1.89,1.63-2.95,2.74l-.02.02c-1.8,1.91-3.51,4.05-5.08,6.08-.51.65-.97,1.23-1.34,1.7-1.26,1.56-.05,2.94.35,3.33,1.02.99,2.75,1.49,3.93.47.8-.73,1.53-1.45,2.25-2.17l.27-.27c2.36-2.36,4.58-4.59,6.65-5.22.19-.06.44-.09.86-.06.96.02,2.71.26,3.68.4,1.83.27,4.13.67,4.8.88,1.11.56,2.34,1.34,3.81,2.38.85.6,1.74,1.27,2.67,1.98,1.54,1.19,3.15,2.49,4.69,3.79,2.66,2.24,5.13,4.47,6.79,6.13,1.14,1.14,1.5,2.72.98,4.34-.53,1.64-1.91,3.12-3.45,3.68-.45.16-.89.24-1.33.24Z"/><path class="cls-1" d="m59.55,87.91c-.79,0-1.56-.26-2.22-.8-1.21-.98-3.92-3.5-6.46-5.99-.38-.37-.39-.99-.01-1.37.37-.38.99-.39,1.37-.01,2.46,2.41,5.18,4.94,6.33,5.87.9.73,2.06.24,2.8-.57.98-1.07,1.36-2.78,0-4.19l-7.83-7.05c-.4-.36-.43-.97-.07-1.37.36-.4.97-.43,1.37-.07l7.88,7.09c2.28,2.35,1.63,5.21.09,6.89-.94,1.03-2.11,1.56-3.23,1.56Z"/><path class="cls-1" d="m15.3,79.44c-.23,0-.46-.08-.64-.25-.64-.57-2.03-.93-4.12-1.04H1.02c-.54,0-.97-.43-.97-.97s.43-.97.97-.97h9.57c2.66.15,4.35.64,5.36,1.53.4.36.43.97.08,1.37-.19.21-.46.32-.72.32Z"/></g></svg>