<?xml version="1.0" encoding="UTF-8"?><svg id="Layer_2" xmlns="http://www.w3.org/2000/svg" viewBox="0 0 65.4 93.63"><defs><style>.cls-1{fill:#fff;}</style></defs><g id="_ú_ŠE_n_"><path class="cls-1" d="m20.33,21.62C12.38,21.62,6.8,17.49.17,7.91c-.29-.42-.2-.99.19-1.31C8.52.13,16.86-1.69,23.24,1.61c5.68,2.93,8.81,9.4,8.39,17.32-.02.41-.3.76-.69.88-4.03,1.18-7.5,1.81-10.61,1.81ZM2.29,7.56c8.31,11.74,14.67,14.18,27.43,10.58.17-6.82-2.56-12.32-7.37-14.81C16.86.5,9.59,2.04,2.29,7.56Zm28.37,11.32h.02-.02Z"/><path class="cls-1" d="m32.7,28.55c-.54,0-.97-.43-.97-.97,0-5.44-2.29-10.41-6.46-13.99-4.78-4.1-11.39-5.98-17.71-5.02-.51.07-1.02-.28-1.1-.81-.08-.53.28-1.02.81-1.1,6.85-1.05,14.06,1,19.26,5.47,4.6,3.95,7.13,9.44,7.13,15.46,0,.54-.43.97-.97.97Z"/><path class="cls-1" d="m32.7,34.75c-.54,0-.97-.43-.97-.97v-6.21c0-.54.43-.97.97-.97s.97.43.97.97v6.21c0,.54-.43.97-.97.97Z"/><path class="cls-1" d="m8.82,12.62c-.25,0-.5-.09-.68-.28-.38-.38-.38-.99,0-1.37,1.68-1.68,3.67-3.5,5.64-4.28.5-.19,1.06.05,1.26.55.19.5-.05,1.06-.55,1.26-1.86.73-4.05,2.91-4.98,3.84-.19.19-.44.28-.68.28Z"/><path class="cls-1" d="m13.34,15.89c-.19,0-.37-.05-.54-.16-.44-.3-.56-.9-.27-1.34,1.39-2.09,4.1-5.7,6.57-6.36.51-.13,1.05.17,1.18.69s-.17,1.05-.69,1.19c-1.31.35-3.4,2.48-5.45,5.56-.19.28-.49.43-.81.43Z"/><path class="cls-1" d="m20.06,17.21c-.09,0-.18-.01-.27-.04-.52-.15-.81-.68-.66-1.2.57-2.01,2.56-4.37,4.52-5.38.47-.24,1.06-.06,1.31.42.24.47.06,1.06-.42,1.3-1.46.75-3.12,2.71-3.54,4.19-.12.43-.51.7-.93.7Z"/><path class="cls-1" d="m14.68,8.65c-.22,0-.43-.07-.61-.22-.76-.62-2.36-2.56-2.72-4.07-.13-.52.19-1.04.72-1.17.52-.13,1.04.19,1.17.71.23.95,1.51,2.57,2.06,3.02.41.34.48.95.14,1.36-.19.23-.47.36-.75.36Z"/><path class="cls-1" d="m19.63,10.04c-.3,0-.6-.14-.79-.41-.6-.84-2.16-3.8-2.16-5.5,0-.54.43-.97.97-.97s.97.43.97.97c0,1.01,1.19,3.52,1.8,4.38.31.44.21,1.04-.23,1.35-.17.12-.37.18-.56.18Z"/><path class="cls-1" d="m23.66,12.14c-.85-2.17-1.71-4.69-1.34-6.44.11-.52.63-.86,1.15-.75.52.11.86.63.75,1.15-.3,1.4.82,4.23,1.18,5.16l-.84.52-.9.35Z"/><path class="cls-1" d="m45.07,21.62c-3.11,0-6.58-.63-10.61-1.81-.39-.12-.67-.47-.69-.88-.42-7.91,2.72-14.39,8.39-17.32,6.38-3.3,14.72-1.48,22.87,4.99.4.32.48.89.19,1.31-6.63,9.58-12.21,13.71-20.16,13.71Zm-9.4-3.48c12.76,3.6,19.12,1.16,27.43-10.58-7.29-5.52-14.57-7.06-20.06-4.23-4.82,2.49-7.54,7.99-7.37,14.81Z"/><path class="cls-1" d="m32.7,28.55c-.54,0-.97-.43-.97-.97,0-6.02,2.53-11.51,7.13-15.46,5.2-4.47,12.41-6.51,19.26-5.47.53.08.89.57.81,1.1-.08.53-.58.89-1.1.81-6.32-.96-12.93.92-17.71,5.02-4.16,3.58-6.46,8.55-6.46,13.99,0,.54-.43.97-.97.97Z"/><path class="cls-1" d="m56.58,12.62c-.25,0-.5-.09-.68-.28-.93-.93-3.12-3.11-4.98-3.84-.5-.2-.74-.76-.55-1.26.2-.5.76-.75,1.26-.55,1.97.78,3.96,2.6,5.64,4.28.38.38.38.99,0,1.37-.19.19-.44.28-.68.28Z"/><path class="cls-1" d="m52.06,15.89c-.31,0-.62-.15-.81-.43-2.06-3.08-4.15-5.21-5.46-5.56-.52-.14-.82-.67-.69-1.19.14-.52.66-.83,1.19-.69,2.46.66,5.17,4.26,6.57,6.36.3.45.18,1.05-.27,1.34-.17.11-.35.16-.54.16Z"/><path class="cls-1" d="m45.34,17.21c-.42,0-.81-.28-.93-.7-.43-1.48-2.08-3.44-3.54-4.19-.47-.25-.66-.83-.42-1.3.25-.48.83-.66,1.31-.42,1.96,1.01,3.94,3.37,4.52,5.38.15.52-.15,1.05-.66,1.2-.09.03-.18.04-.27.04Z"/><path class="cls-1" d="m50.72,8.65c-.28,0-.56-.12-.75-.36-.34-.41-.27-1.02.14-1.36.56-.45,1.84-2.08,2.06-3.02.12-.52.64-.84,1.17-.72.52.12.84.65.72,1.17-.36,1.51-1.96,3.45-2.72,4.07-.18.15-.4.22-.61.22Z"/><path class="cls-1" d="m45.77,10.04c-.19,0-.39-.06-.56-.18-.44-.31-.54-.91-.23-1.35.61-.86,1.8-3.37,1.8-4.38,0-.54.43-.97.97-.97s.97.43.97.97c0,1.7-1.56,4.66-2.16,5.5-.19.27-.49.41-.79.41Z"/><path class="cls-1" d="m40.83,12.66c-.1,0-.21-.02-.31-.06-.5-.2-.78-.67-.58-1.17.43-1.1,1.55-3.93,1.25-5.33-.11-.52.22-1.04.75-1.15.51-.11,1.04.22,1.15.75.37,1.74-.49,4.27-1.27,6.27-.16.4-.57.69-.98.69Z"/><path class="cls-1" d="m32.7,93.63c-16.77,0-30.41-13.64-30.41-30.41s13.64-30.41,30.41-30.41,30.41,13.64,30.41,30.41-13.64,30.41-30.41,30.41Zm0-58.88c-15.7,0-28.47,12.77-28.47,28.47s12.77,28.47,28.47,28.47,28.47-12.77,28.47-28.47-12.77-28.47-28.47-28.47Z"/><path class="cls-1" d="m38.45,50.36c-.26,0-.55-.05-.85-.16-.83-.29-1.9-1.01-2.28-1.91-.11-.26-.3-.62-.52-1.02-.51-.96-1.15-2.15-1.39-3.17h0c-.11-.44,0-.87.27-1.21.63-.75,1.9-.74,3.4-.66.2.01.36.02.44.02,1.48-.1,1.84,1.88,1.97,3.05.05.07.45.38.68.57.56.44,1.14.9,1.25,1.59.19,1.22-1.08,2.09-2.21,2.72-.22.12-.48.19-.76.19Zm-3.01-6.21c.26.7.7,1.52,1.06,2.21.25.47.47.88.6,1.18.15.36,1.01.89,1.35.89.55-.33.82-.57.95-.71-.11-.07-.3-.22-.44-.33-.61-.49-1.31-1.04-1.41-1.87-.06-.58-.2-1.08-.31-1.34-.09,0-.18,0-.28-.01-.29-.02-1.04-.06-1.53-.01Z"/><path class="cls-1" d="m23.06,88.5c-.11,0-.22-.01-.32-.04-1.59-.47-4.64-5.73-4.54-7.81.07-1.62-.82-3.99-1.14-4.45-.13-.14-.88-.68-1.48-1.12-2.84-2.07-4.05-3.11-4.15-4.14-.1-1.07.8-2.23,1.66-3.07-.73-.41-1.66-.84-2.39-.91-1.61-.14-2.03-1.42-2.33-2.35-.19-.59-.38-1.15-.8-1.55-.3-.28-1.62-.31-2.58-.32-.56,0-1.15-.02-1.74-.06-.53-.04-.93-.49-.9-1.02.76-15.25,12.82-27.62,28.05-28.76.31-.02.59.1.8.32.76.85,1.08,1.65.98,2.42-.15,1.15-1.16,1.82-2.05,2.41-.41.27-.83.55-1.11.83-1.77,1.81-3.14,1.02-4.24.38l-.46-.26c-.05-.03-.1-.05-.26.05-.45.31-.93,1.27-.87,2.05.19-.04.45-.11.66-.17.52-.15,1.17-.33,1.85-.37.51-.03.94-.06,1.31-.09.91-.07,1.57-.12,2.28.03,1.35.29,1.42,2.16,1.51,4.75.02.63.04,1.24.09,1.74.07.75-.12,1.3-.56,1.63-.68.5-1.47.17-2.05-.06,0,0,0,0,0,0,.06.14.12.28.16.38.61,1.39-.51,2.4-1.05,2.88-.11.1-.21.18-.27.25-.61.74-1.59.41-2.46.12-.44-.15-.97-.36-1.3-.32-.67.02-1.75.7-2.27,1.31-.12.15-.34.77-.47,1.18-.39,1.14-.76,2.21-1.65,2.55-.03.01-2.63.93-3.81.81-.65.22-2.76,1.63-3.46,2.2.08.29.35.78.71.83.21.04.36-.07.69-.32.35-.26,1.25-.95,2.17-.19.59.48.43,1.22.25,2.07-.05.24-.14.62-.17.91,1.09.17,1.95.92,2.41,1.4,1.02-.01,3.43-.03,3.85-.03.69,0,3.89.98,5.14,2.3.44.46.65.96.62,1.48.12.05.94.23,1.42.34.84.19,1.78.4,2.5.88,2.03,1.35,1.64,7.1,1.47,7.79h0c-.26.98-1.3,1.07-1.99,1.14-.27.03-.78.07-.91.17-.52.56-3.06,4.83-3.52,6.25-.59,1.8-2.03,3.57-3.24,3.57ZM4.34,60.79c.23,0,.45,0,.68.01,1.63.03,3.04.05,3.89.86.77.73,1.07,1.63,1.3,2.35.31.96.4,1.01.66,1.03,1.91.17,4.15,1.74,4.4,1.92.25.18.39.46.4.76,0,.3-.13.59-.37.78-.99.78-1.93,1.88-1.95,2.26.22.46,2.34,2.01,3.36,2.76,1.15.84,1.67,1.23,1.92,1.57.56.8,1.58,3.62,1.49,5.65-.06,1.26,2.04,4.83,3,5.72.36-.3.99-1.05,1.34-2.12.54-1.64,3.19-6.14,3.94-6.97.58-.64,1.45-.72,2.15-.78.1,0,.23-.02.35-.04.15-1.38-.04-4.9-.72-5.35-.42-.28-1.18-.45-1.84-.6-1.28-.29-3.03-.68-2.94-2.34-.27-.56-3.11-1.65-3.86-1.74-.49,0-4.24.04-4.24.04-.33.02-.6-.14-.78-.39-.21-.27-.96-1.06-1.64-1.06,0,0-.01,0-.02,0-.45,0-.85-.18-1.12-.52-.46-.57-.4-1.37-.26-2.15-.37.17-.82.29-1.37.21-1.18-.17-1.92-1.14-2.23-2-.28-.79-.2-1.49.21-1.93.03-.04,3.97-3.29,5.32-2.94.35.02,1.9-.35,2.86-.71.07-.11.34-.89.5-1.36.24-.71.47-1.38.84-1.81.64-.75,2.21-1.95,3.68-1.99.7,0,1.36.22,1.97.43.19.06.44.15.62.2.06-.06.12-.11.19-.17.18-.16.56-.5.61-.66-.37-.74-.93-1.99-.09-2.85.72-.73,1.7-.37,2.32-.12-.03-.48-.04-.94-.06-1.41-.03-.92-.08-2.38-.25-2.96-.38-.04-.81,0-1.45.05-.39.03-.83.06-1.36.09-.47.02-.95.16-1.42.29-.8.23-1.64.47-2.35,0-.43-.28-.68-.75-.76-1.39-.17-1.45.57-3.18,1.7-3.95.72-.49,1.55-.55,2.27-.15l.51.29c1.03.6,1.17.68,1.88-.06.43-.43.93-.77,1.42-1.09.49-.32,1.16-.77,1.2-1.04.01-.09-.04-.27-.22-.52-13.69,1.27-24.53,12.25-25.68,25.91Zm26.51,16.09s0,0,0,0c0,0,0,0,0,0h0Zm-5.24-26.04s0,0-.01.01c0,0,0,0,.01-.01Z"/><path class="cls-1" d="m43.88,86.02c-.34,0-.67-.09-1.01-.27-1.52-.81-.53-2.98.52-5.27.19-.42.37-.82.52-1.18.63-1.51-.03-5.04-.73-5.88-.49-.41-3.44-.78-4.85-.96-2.39-.3-2.95-.37-3.27-.99-.37-.72-.83-5.32-.66-6.65.23-1.95,3.83-4.62,4.72-5.13,1.33-.75,5.31-1.07,6.09-1.13.11-.01.22,0,.33.03,2.08.58,4.62,1.2,5.14,1.2h.01c.76-.13,2.68-.55,3.43-.78.08-.7-.1-2.47-.51-3.09-.28-.42-.82-.76-1.32-.83-.29-.04-.52.02-.68.17-.29.26-.28.75.04,1.47.1.24.28.82-.35,1.34-.02.02-2.41,1.69-3.6.91-.68-.45-1.27-1.66-1.56-2.58-.5.12-1.11.2-1.94.2,0,0-.02,0-.03,0-1.24,0-3.04,1.22-4.01,1.87-.85.57-1.71,1.16-2.32.29-.08-.12-.33-.57-.6-1.09-.31-.59-.67-1.28-.82-1.49-.97-1.31,1.92-4.12,1.95-4.14.16-.15.74-.58,1.4-1.06.59-.44,1.55-1.14,1.86-1.41.18-.43.61-1.61.61-1.61.1-.28.32-.49.6-.58,1.18-.39,2.07-.52,2.63-.39.29-.08.95-.44,1.4-.69.38-.21.78-.43,1.16-.61-.03-.55-.7-1.82-1.16-2.48-.34.15-.81.46-.87.83-.27,1.58-1.88,2.04-2.65,2.25-.14.04-.26.07-.34.11-.33.15-.68.15-.99,0-.55-.25-.72-.79-.87-1.26-.1-.3-.21-.67-.38-.84-.91-.91-1.71-3.31-.95-4.78h0c.41-.8,1.32-1.51,2.46-2.41.57-.45,1.19-.94,1.79-1.48.29-.26.7-.32,1.05-.16l.64.3c10.54,5.02,17.35,15.8,17.35,27.47,0,.93-.04,1.85-.12,2.76l-.08.74c-.05.5-.52.89-.99.86q-4.91-.13-5.18-.84c-.07-.2-.21-.69-.37-1.29-.15-.54-.4-1.47-.6-2.1-.03.02-.06.03-.09.04-.17.08-.34.17-.5.24-.05.51-.02,1.61.27,2.73.14.51.46.82.87,1.21.58.55,1.3,1.23,1.32,2.5.02,1.21-.78,2.3-1.62,3.46-.62.85-1.26,1.72-1.61,2.67-.95,2.54-4.05,5.87-6.5,7.62l-.42.3c-1.62,1.16-2.64,1.89-3.61,1.89Zm-7.16-15.73c.44.08,1.2.18,1.84.25,3.18.4,5.32.72,6.09,1.63,1.2,1.42,1.94,5.73,1.04,7.88-.16.38-.35.8-.55,1.24-.35.76-.94,2.07-1.09,2.75.44-.13,1.23-.7,2.31-1.48l.43-.3c2.17-1.55,5-4.55,5.81-6.72.45-1.2,1.2-2.23,1.86-3.13.65-.89,1.26-1.72,1.25-2.29,0-.44-.23-.66-.72-1.13-.51-.48-1.14-1.08-1.41-2.13-.33-1.26-.58-3.53-.05-4.41.14-.22.47-.48.72-.54.1-.02.38-.16.56-.25.69-.34,1.46-.73,2.12-.22.36.28.52.64,1.3,3.5.06.21.11.4.16.57.44.03,1.24.06,2.68.1.07-.79.1-1.59.1-2.4,0-10.92-6.38-21.02-16.24-25.72l-.05-.02c-.47.4-.95.78-1.4,1.14-.84.66-1.71,1.35-1.94,1.78-.26.5.1,2.03.59,2.52.45.44.66,1.01.81,1.46.56-.16,1.09-.36,1.14-.67.15-.93.88-1.78,1.94-2.26.51-.23,1.23-.43,1.76-.09.53.34,2.27,2.99,2.16,4.56-.05.66-.39,1.18-.93,1.43-.4.18-.82.42-1.23.64-1.27.69-2.11,1.15-2.87.84-.09,0-.56.1-1.05.24-.19.52-.5,1.32-.59,1.48-.15.3-.32.45-2.39,1.98-.59.43-1.11.81-1.26.95-.26.23-1.14,1.36-1.44,1.92.18.31.42.76.74,1.36.02.05.05.09.07.14.02-.01.03-.02.05-.04,1.24-.84,3.24-2.16,5.16-2.2.93.03,1.43-.13,1.77-.23.36-.1.8-.23,1.26.05.47.28.58.79.63,1.01.15.68.53,1.42.76,1.75.26-.07.66-.23.97-.39-.48-1.66.2-2.59.69-3.03.59-.52,1.37-.75,2.22-.64,1.04.13,2.1.79,2.68,1.67.79,1.18,1,3.71.76,4.77-.04.17-.16.7-.64.98-.76.45-4.35,1.11-4.38,1.11-.59.1-2.53-.3-5.78-1.2-1.78.14-4.44.49-5.12.87-1.35.76-3.66,2.94-3.75,3.68-.12.98.2,4.09.41,5.23Zm6.39-25.42h.02-.02Z"/><path class="cls-1" d="m20.55,64.34c-1.55,0-3.64-1.46-3.67-1.48-.88-.62-.85-1.9-.46-2.83.45-1.05,1.36-1.61,2.31-1.46.22.03,1.35.17,2.61.6.7.24,1.19.76,1.37,1.47.28,1.12-.29,2.48-1,3.25-.3.32-.71.45-1.16.45Zm-1.96-4.8l-.19.95c-.17.08-.38.69-.29.92.52.32,1.78.91,2.32.99.31-.43.47-1.01.4-1.28-1.29-.51-2.33-.62-2.34-.62-.03,0-.06,0-.08-.01l.18-.95Z"/></g></svg>