<?xml version="1.0" encoding="UTF-8"?><svg id="Layer_2" xmlns="http://www.w3.org/2000/svg" viewBox="0 0 139.02 66.15"><defs><style>.cls-1{isolation:isolate;}.cls-2{fill:#fff;stroke-width:0px;}</style></defs><g id="Layer_1-2"><g class="cls-1"><path class="cls-2" d="m26.47,40.87l-6.34-11.77-5.98,11.77H0l13.54-20.13L.67.61h14.7l5.73,11.47L26.9.61h13.54l-12.81,19.82,13.85,20.44h-15.01Z"/><path class="cls-2" d="m94.49,40.87h-10.98v-16.1l.24-12.99h-.12l-8.84,29.1h-10l-8.72-29.1h-.18l.24,12.99v16.1h-10.98V.61h17.57l5.43,19.09,2.01,7.99h.12l2.01-7.99L77.71.61h16.77v40.26Z"/><path class="cls-2" d="m128.5,1.56c2.79,1.04,5.46,2.8,8.02,5.28l-6.1,7.87c-1.63-1.87-3.37-3.22-5.21-4.06-1.85-.83-3.98-1.25-6.37-1.25-1.75,0-3.11.29-4.09.85-.98.57-1.46,1.32-1.46,2.26,0,.73.51,1.3,1.53,1.71,1.02.41,2.7.83,5.06,1.28,3.9.69,7.02,1.6,9.36,2.71,2.34,1.12,4.05,2.53,5.12,4.24,1.08,1.71,1.62,3.82,1.62,6.34,0,2.68-.77,4.98-2.32,6.89-1.55,1.91-3.64,3.36-6.28,4.33-2.64.97-5.63,1.46-8.97,1.46-4.64,0-8.38-.5-11.22-1.49-2.85-1-5.49-2.57-7.93-4.73l5.79-8.54c1.63,1.91,3.45,3.29,5.46,4.12,2.01.83,4.38,1.25,7.11,1.25,3.7,0,5.55-.89,5.55-2.68,0-.77-.54-1.38-1.62-1.83-1.08-.45-2.82-.89-5.21-1.34-3.25-.61-5.99-1.34-8.21-2.2-2.22-.86-4.06-2.12-5.52-3.81s-2.2-3.94-2.2-6.74c0-2.64.71-4.98,2.14-7.02,1.42-2.03,3.5-3.62,6.22-4.76,2.72-1.14,5.98-1.71,9.76-1.71s7.19.52,9.97,1.56Z"/></g><g class="cls-1"><path class="cls-2" d="m15.45,49.8c1.64,1.61,2.46,3.88,2.46,6.83s-.82,5.23-2.46,6.83-3.92,2.41-6.83,2.41H2.66v-18.48h5.96c2.91,0,5.19.8,6.83,2.41Zm-1.67,12.08c1.19-1.26,1.78-3.01,1.78-5.25s-.59-3.99-1.78-5.25-2.83-1.89-4.94-1.89h-3.95v14.28h3.95c2.11,0,3.76-.63,4.94-1.89Z"/><path class="cls-2" d="m40.51,48.27c1.29.77,2.28,1.88,2.98,3.3.7,1.43,1.05,3.11,1.05,5.05s-.35,3.62-1.05,5.05c-.7,1.43-1.69,2.53-2.98,3.3-1.29.78-2.8,1.16-4.54,1.16s-3.25-.39-4.54-1.16c-1.29-.77-2.28-1.88-2.98-3.3-.7-1.43-1.05-3.11-1.05-5.05s.35-3.63,1.05-5.05c.7-1.43,1.69-2.53,2.98-3.3,1.29-.78,2.8-1.16,4.54-1.16s3.25.39,4.54,1.16Zm-9.09,2.91c-1.11,1.31-1.67,3.13-1.67,5.45s.55,4.13,1.67,5.45c1.11,1.32,2.63,1.97,4.55,1.97s3.44-.66,4.55-1.97,1.67-3.13,1.67-5.45-.56-4.13-1.67-5.45c-1.11-1.32-2.63-1.97-4.55-1.97s-3.44.66-4.55,1.97Z"/><path class="cls-2" d="m69.66,65.87h-2.77l-7.73-12.38-1.96-3.64h-.03l.11,2.97v13.05h-2.13v-18.48h2.77l7.7,12.32,1.99,3.7h.03l-.11-2.97v-13.05h2.13v18.48Z"/><path class="cls-2" d="m91.78,60.75h-8.37l-1.96,5.12h-2.35l7.2-18.48h2.66l7.17,18.48h-2.38l-1.96-5.12Zm-.81-2.1l-2.49-6.55-.87-2.57h-.06l-.81,2.49-2.52,6.64h6.75Z"/><path class="cls-2" d="m116.03,49.49h-6.44v16.38h-2.24v-16.38h-6.44v-2.1h15.12v2.1Z"/><path class="cls-2" d="m139.02,63.77v2.1h-13.38v-18.48h12.96v2.1h-10.72v5.96h8.34v2.1h-8.34v6.22h11.14Z"/></g></g></svg>