<?xml version="1.0" encoding="UTF-8"?><svg id="Layer_2" xmlns="http://www.w3.org/2000/svg" viewBox="0 0 93.62 84.86"><defs><style>.cls-1{fill:#fff;}</style></defs><g id="_ú_ŠE_n_"><path class="cls-1" d="m36.06,13.72c-5.92,0-10.29-2.73-15.22-8.81-.17-.21-.24-.47-.21-.73.03-.26.17-.5.38-.66C25.32.31,30.26-.75,34.93.53c4.92,1.35,9.1,5.16,11.2,10.18.1.25.1.54-.02.78-.12.25-.33.43-.59.51-3.63,1.11-6.71,1.7-9.46,1.7Zm-13.06-9.24c6.22,7.36,11.17,8.78,20.89,6-1.97-3.99-5.45-6.97-9.47-8.08-2.72-.75-6.85-.95-11.42,2.08Z"/><path class="cls-1" d="m57.57,13.72c-2.75,0-5.83-.59-9.46-1.7-.26-.08-.48-.27-.59-.51-.12-.25-.12-.53-.02-.78,2.09-5.02,6.27-8.83,11.19-10.18,4.66-1.29,9.61-.23,13.93,2.98.21.16.35.39.38.66.03.26-.04.53-.21.73-4.93,6.08-9.3,8.81-15.22,8.81Zm-7.83-3.24c9.72,2.79,14.67,1.36,20.89-6-4.57-3.03-8.7-2.83-11.42-2.08-4.02,1.11-7.5,4.09-9.47,8.07Z"/><path class="cls-1" d="m46.81,17.82c-.54,0-.97-.43-.97-.97,0-1.88-.49-3.65-1.44-5.27-.27-.46-.12-1.05.34-1.33.46-.27,1.05-.12,1.33.34,1.14,1.92,1.71,4.02,1.71,6.25,0,.54-.43.97-.97.97Z"/><path class="cls-1" d="m46.81,32.87c-.54,0-.97-.43-.97-.97v-15.05c0-.54.43-.97.97-.97s.97.43.97.97v15.05c0,.54-.43.97-.97.97Z"/><path class="cls-1" d="m46.81,17.82c-.54,0-.97-.43-.97-.97,0-2.23.58-4.34,1.71-6.25.27-.46.87-.61,1.33-.34.46.27.61.87.34,1.33-.96,1.61-1.44,3.39-1.44,5.27,0,.54-.43.97-.97.97Z"/><path class="cls-1" d="m62.64,34.07c-.42,0-.78-.27-.91-.64-.4-.92-1.01-1.53-1.79-1.81-.39-.13-.67-.49-.67-.92,0-.65.68-1.13,1.3-.91,1.32.47,2.35,1.48,2.97,2.94.05.12.08.25.08.38,0,.54-.43.97-.97.97Z"/><path class="cls-1" d="m75.28,47.83c-.45,0-.85-.31-.95-.77l-3.64-17.08c-.18-.87-.72-1.6-1.53-2.08-.83-.49-1.83-.64-2.81-.44-2,.43-3.32,2.25-2.94,4.07l.32,1.51c.11.52-.22,1.04-.74,1.15-.53.12-1.04-.22-1.15-.74l-.32-1.51c-.61-2.86,1.38-5.72,4.43-6.37,1.46-.31,2.96-.08,4.21.67,1.27.76,2.14,1.94,2.43,3.34l3.64,17.08c.11.52-.22,1.04-.75,1.15-.07.01-.14.02-.2.02Z"/><path class="cls-1" d="m84.24,38.69c-.36,0-.7-.2-.87-.54l-3.57-7.32c-1.13-2.24-2.66-3.03-4.55-2.33-1.31.48-2.55,1.42-1.86,4.67.11.52-.22,1.04-.75,1.15-.52.11-1.04-.22-1.15-.75-.75-3.53.28-5.85,3.08-6.89,2.84-1.05,5.38.14,6.96,3.29l3.57,7.34c.23.48.03,1.06-.45,1.3-.14.07-.28.1-.42.1Z"/><path class="cls-1" d="m61.95,84.86c-.45,0-.85-.31-.95-.77-.63-2.93-1.67-7.73-1.79-8.13-.26-.71-1.65-1.59-3.13-2.52-3.2-2.03-7.59-4.8-9.03-10.58-.26-1.03-.47-2.14-.64-3.32-.07-.53.29-1.02.82-1.09.52-.08,1.02.29,1.09.82.16,1.11.36,2.16.6,3.12,1.25,5.03,5.1,7.46,8.18,9.41,1.92,1.21,3.43,2.17,3.92,3.53.11.29.92,4.01,1.65,7.42l25.11-5.07-1.55-7.49c-.05-.25,0-.52.14-.73.02-.02,1.55-2.35,3.41-7.31,1.33-3.54,1.88-6.43,1.86-9.66-.02-2.95-1.03-9.99-1.42-11.83-.27-1.25-.95-2.13-1.96-2.54-1.1-.45-2.49-.28-3.53.42-.67.45-1.74,1.5-1.33,3.44.1.92.82,8.18.33,10.67-.05.23-.17.44-.36.58-.67.51-1.34,1-2,1.48-2.35,1.7-4.56,3.31-5.96,5.47-.29.45-.89.58-1.34.29-.45-.29-.58-.89-.29-1.34,1.59-2.46,3.95-4.18,6.45-5.99.55-.4,1.1-.8,1.66-1.22.26-2.17-.19-7.62-.4-9.64-.45-2.1.35-4.13,2.16-5.35,1.58-1.06,3.63-1.3,5.33-.61,1.62.65,2.73,2.05,3.13,3.94.41,1.95,1.44,9.1,1.46,12.22.02,3.49-.57,6.58-1.99,10.36-1.55,4.14-2.88,6.51-3.4,7.35l1.66,8.07c.05.25,0,.52-.14.73-.14.22-.36.36-.62.42l-27,5.45c-.06.01-.13.02-.19.02Z"/><path class="cls-1" d="m18.35,47.83c-.07,0-.14,0-.2-.02-.52-.11-.86-.63-.75-1.15l3.65-17.08c.3-1.4,1.16-2.59,2.43-3.34,1.25-.74,2.74-.98,4.2-.67,1.37.29,2.59,1.05,3.42,2.13.33.42.25,1.03-.18,1.36-.42.32-1.03.25-1.36-.18-.55-.71-1.36-1.22-2.29-1.41-.99-.21-1.99-.05-2.81.44-.8.48-1.34,1.22-1.52,2.08l-3.65,17.08c-.1.45-.5.77-.95.77Z"/><path class="cls-1" d="m9.39,38.69c-.14,0-.29-.03-.42-.1-.48-.23-.68-.81-.45-1.3l3.57-7.32c1.59-3.15,4.13-4.35,6.97-3.3,2.8,1.04,3.83,3.36,3.08,6.89-.11.52-.62.86-1.15.75-.52-.11-.86-.63-.75-1.15.69-3.25-.55-4.19-1.86-4.67-1.89-.7-3.42.09-4.56,2.34l-3.56,7.31c-.17.34-.51.54-.87.54Z"/><path class="cls-1" d="m31.67,84.86c-.06,0-.13,0-.19-.02l-27-5.45c-.25-.05-.47-.2-.62-.42-.14-.21-.19-.48-.14-.73l1.66-8.07c-.51-.85-1.84-3.22-3.4-7.35C.57,59.05-.02,55.96,0,52.47c.02-3.08,1.06-10.33,1.46-12.22.4-1.89,1.51-3.28,3.13-3.94,1.71-.69,3.75-.46,5.34.61,1.81,1.22,2.61,3.26,2.14,5.45-.19,1.93-.64,7.37-.38,9.54.56.42,1.12.83,1.67,1.23,2.49,1.81,4.85,3.52,6.43,5.98.29.45.16,1.05-.29,1.34-.45.29-1.05.16-1.34-.29-1.39-2.15-3.6-3.76-5.94-5.46-.66-.48-1.34-.97-2.01-1.49-.19-.14-.32-.35-.36-.58-.49-2.49.23-9.75.31-10.57.43-2.04-.64-3.09-1.31-3.54-1.04-.7-2.42-.87-3.53-.42-1.02.41-1.7,1.29-1.96,2.55-.39,1.83-1.4,8.87-1.42,11.83-.02,3.23.54,6.12,1.86,9.66,1.86,4.96,3.4,7.29,3.41,7.31.14.22.2.48.14.73l-1.55,7.49,25.11,5.07c.65-2.99,1.55-7.11,1.65-7.41.5-1.37,2.01-2.33,3.93-3.54,3.09-1.95,6.93-4.39,8.18-9.41.24-.97.44-2,.59-3.04.08-.53.58-.91,1.1-.82.53.08.9.57.82,1.1-.16,1.11-.37,2.2-.63,3.23-1.44,5.78-5.82,8.55-9.02,10.58-1.48.93-2.87,1.82-3.14,2.56-.1.35-1.15,5.16-1.78,8.1-.1.45-.5.76-.95.76Z"/><path class="cls-1" d="m54.23,61.78c-.96,0-1.84-.3-2.77-.62-1.68-.57-3.57-1.22-6.76-.4-3.71.94-6.16-.28-8.32-1.35-1.57-.78-2.92-1.46-4.56-1.14-4.69.92-10.05-1.61-11.73-4.48h0c-1.6-2.73.31-8,1.7-11.84l.23-.63c.66-1.83,1.68-3.23,2.67-4.59,1.03-1.42,2.1-2.89,2.79-4.91.75-5.14,3.9-5.09,6.22-5.04,1.05.02,2.06.04,2.84-.35,1.06-.53,1.81-1.25,2.53-1.95,1.23-1.19,2.5-2.42,5.02-2.42,2.26,0,4.64.62,6.95,1.22,1.46.38,2.83.74,4.1.92,3.24.48,3.81,1.58,4.32,3.22.22.69.44,1.41,1.16,2.25.69.81,1.83,1.9,3.03,3.06,2.88,2.77,6.15,5.92,7.11,8.58.29.79.73,1.73,1.21,2.71,1.66,3.46,3.73,7.77.44,10.06-3.01,2.1-10.7,5.18-16.62,7.4-.55.21-1.06.29-1.56.29Zm-6.7-3.34c1.95,0,3.39.49,4.55.89,1.36.47,2.12.69,3.02.35,8.22-3.08,13.97-5.63,16.19-7.18,1.8-1.25.63-4.07-1.08-7.64-.49-1.03-.96-2-1.28-2.89-.81-2.24-4.03-5.35-6.63-7.84-1.29-1.24-2.4-2.31-3.16-3.2-.97-1.14-1.3-2.18-1.53-2.93-.34-1.09-.48-1.54-2.75-1.88-1.38-.2-2.8-.57-4.31-.97-2.19-.57-4.45-1.16-6.46-1.16-1.74,0-2.55.79-3.67,1.88-.79.77-1.68,1.63-3.02,2.3-1.21.6-2.55.58-3.74.55-2.33-.03-3.77-.07-4.31,3.56-.81,2.47-1.97,4.06-3.09,5.6-.95,1.3-1.84,2.53-2.41,4.1l-.23.63c-1.12,3.09-2.99,8.25-1.85,10.2h0c1.17,1.99,5.52,4.36,9.69,3.56,2.28-.45,4.07.45,5.79,1.31,2.04,1.01,3.96,1.98,6.97,1.21,1.24-.32,2.33-.44,3.3-.44Z"/></g></svg>