<?xml version="1.0" encoding="UTF-8"?><svg id="Layer_2" xmlns="http://www.w3.org/2000/svg" viewBox="0 0 64.83 93.62"><defs><style>.cls-1{fill:#fff;}</style></defs><g id="_ú_ŠE_n_"><path class="cls-1" d="m55.16,93.62H9.67c-5.33,0-9.67-4.34-9.67-9.66V9.67C0,4.34,4.34,0,9.67,0h45.5c5.33,0,9.67,4.34,9.67,9.67v74.29c0,5.33-4.34,9.66-9.67,9.66ZM9.67,1.94C5.4,1.94,1.94,5.41,1.94,9.67v74.29c0,4.26,3.47,7.73,7.73,7.73h45.5c4.26,0,7.73-3.47,7.73-7.73V9.67c0-4.26-3.47-7.73-7.73-7.73H9.67Z"/><path class="cls-1" d="m63.86,17.86H.97c-.54,0-.97-.43-.97-.97s.43-.97.97-.97h62.89c.54,0,.97.43.97.97s-.43.97-.97.97Z"/><path class="cls-1" d="m63.86,75.31H.97c-.54,0-.97-.43-.97-.97s.43-.97.97-.97h62.89c.54,0,.97.43.97.97s-.43.97-.97.97Z"/><path class="cls-1" d="m42.88,9.93h-20.93c-.54,0-.97-.43-.97-.97s.43-.97.97-.97h20.93c.54,0,.97.43.97.97s-.43.97-.97.97Z"/><path class="cls-1" d="m40.76,87.34h-16.69c-.54,0-.97-.43-.97-.97v-5.84c0-.54.43-.97.97-.97h16.69c.54,0,.97.43.97.97v5.84c0,.54-.43.97-.97.97Zm-15.72-1.94h14.75v-3.9h-14.75v3.9Z"/><path class="cls-1" d="m42.23,55.73h-19.63c-.54,0-.97-.43-.97-.97s.43-.97.97-.97h19.63c.54,0,.97.43.97.97s-.43.97-.97.97Z"/><path class="cls-1" d="m42.23,46.85h-19.63c-.54,0-.97-.43-.97-.97s.43-.97.97-.97h19.63c.54,0,.97.43.97.97s-.43.97-.97.97Z"/><path class="cls-1" d="m42.23,37.97h-19.63c-.54,0-.97-.43-.97-.97s.43-.97.97-.97h19.63c.54,0,.97.43.97.97s-.43.97-.97.97Z"/><path class="cls-1" d="m48.91,66.97H15.92c-.54,0-.97-.43-.97-.97V25.76c0-.54.43-.97.97-.97h25.21c.26,0,.5.1.68.28l7.78,7.78c.18.18.28.43.28.68v32.46c0,.54-.43.97-.97.97Zm-32.02-1.94h31.06v-31.09l-7.21-7.22h-23.84v38.3Z"/><path class="cls-1" d="m48.91,34.51h-7.78c-.54,0-.97-.43-.97-.97v-7.78c0-.54.43-.97.97-.97s.97.43.97.97v6.81h6.81c.54,0,.97.43.97.97s-.43.97-.97.97Z"/></g></svg>