<svg xmlns="http://www.w3.org/2000/svg" width="55.786" height="64" viewBox="0 0 55.786 64">
  <path id="favicon" d="M745.376,0c-1.228,3.807-25.275,6.915-31.2,7.4-13.757,1.257-19.15,8.089-19.15,8.089l0,0A16.723,16.723,0,0,0,689.59,27.8a16.493,16.493,0,0,0,1.012,5.7h0c0,.01.01.021.013.031a16.579,16.579,0,0,0,.8,1.827c.409.895.849,1.8,1.311,2.7,1.788-4.758,9.474-20.089,35.3-24.262.212.068-22.871,4.153-31.916,30.3A177.664,177.664,0,0,0,710.389,64a134.841,134.841,0,0,0,15.544-22.893c-9.478,5.553-16.357,3.737-16.357,3.737v-.021C736.037,43.918,745.412.173,745.376,0Z" transform="translate(-689.59)" fill="#4aa069"/>
</svg>
