<svg id="White_Full" xmlns="http://www.w3.org/2000/svg" width="225.343" height="63.732" viewBox="0 0 225.343 63.732">
  <g id="TREE" transform="translate(0 17.907)">
    <path id="Pfad_4" data-name="Pfad 4" d="M3.364,41.786V18.873H0V13.42H12.426v5.453H9.062V41.786Z" transform="translate(0 -13.122)" fill="#fff"/>
    <path id="Pfad_5" data-name="Pfad 5" d="M10.33,13.42h8.723a4.936,4.936,0,0,1,3.215.936A4.618,4.618,0,0,1,23.8,17a19.253,19.253,0,0,1,.393,4.341A9.082,9.082,0,0,1,23.57,25.1a3.5,3.5,0,0,1-2.184,1.886,2.675,2.675,0,0,1,1.872,1.289,5.671,5.671,0,0,1,.583,2.767l-.068,10.731H18.225v-11.1c0-.787-.149-1.3-.461-1.519a3.111,3.111,0,0,0-1.682-.326V41.773H10.33V13.42Zm7.136,10.5c.787,0,1.194-.855,1.194-2.578a10.338,10.338,0,0,0-.095-1.682,1.216,1.216,0,0,0-.366-.773,1.152,1.152,0,0,0-.76-.217H16.123v5.25h1.357Z" transform="translate(3.684 -13.122)" fill="#fff"/>
    <path id="Pfad_6" data-name="Pfad 6" d="M21.954,41.786V13.42H33.322V18.9H27.733v5.521h5.359v5.345H27.733v6.512h5.942V41.8H21.94Z" transform="translate(7.824 -13.122)" fill="#fff"/>
    <path id="Pfad_7" data-name="Pfad 7" d="M31.984,41.786V13.42H43.352V18.9H37.763v5.521h5.359v5.345H37.763v6.512H43.7V41.8H31.97Z" transform="translate(11.4 -13.122)" fill="#fff"/>
    <path id="Pfad_8" data-name="Pfad 8" d="M86.614,13.42h7.827A5.831,5.831,0,0,1,99,15.1a7.278,7.278,0,0,1,1.547,4.992l.068,13.281c.027,2.795-.461,4.9-1.452,6.308S96.53,41.8,94.238,41.8H86.6V13.42Zm6.7,23.347a1.353,1.353,0,0,0,1.547-1.519V20.623a5.392,5.392,0,0,0-.149-1.438.96.96,0,0,0-.543-.638,3.418,3.418,0,0,0-1.221-.163h-.624v18.4h.99Z" transform="translate(30.88 -13.122)" fill="#fff"/>
    <path id="Pfad_9" data-name="Pfad 9" d="M100.231,40.02a8.815,8.815,0,0,1-1.791-5.9V20.607a7.717,7.717,0,0,1,1.791-5.535,8.222,8.222,0,0,1,10.446,0,7.717,7.717,0,0,1,1.791,5.535V34.119a8.829,8.829,0,0,1-1.791,5.915,7.573,7.573,0,0,1-10.446-.027Zm6.24-3.785a5.131,5.131,0,0,0,.258-1.845V20.526a3.972,3.972,0,0,0-.244-1.506.991.991,0,0,0-1-.583c-.95,0-1.424.719-1.424,2.143V34.417a4.335,4.335,0,0,0,.3,1.845,1.089,1.089,0,0,0,1.085.624,1,1,0,0,0,1.031-.665Z" transform="translate(35.102 -13.2)" fill="#fff"/>
    <path id="Pfad_10" data-name="Pfad 10" d="M110.46,41.786V13.42h5.847l2.6,13.566V13.42h5.481V41.786h-5.548l-2.835-14.2v14.2H110.46Z" transform="translate(39.389 -13.122)" fill="#fff"/>
    <path id="Pfad_11" data-name="Pfad 11" d="M122.03,41.786l2.74-28.366h9.618L137.1,41.786h-5.386l-.393-4.585H127.89l-.326,4.585h-5.521Zm6.281-9.116h2.578l-1.262-14.434h-.271L128.3,32.67Z" transform="translate(43.514 -13.122)" fill="#fff"/>
    <path id="Pfad_12" data-name="Pfad 12" d="M137.084,41.786V18.873H133.72V13.42h12.426v5.453h-3.364V41.786H137.1Z" transform="translate(47.683 -13.122)" fill="#fff"/>
    <path id="Pfad_13" data-name="Pfad 13" d="M145.661,40.02a8.815,8.815,0,0,1-1.791-5.9V20.607a7.717,7.717,0,0,1,1.791-5.535,8.222,8.222,0,0,1,10.446,0,7.717,7.717,0,0,1,1.791,5.535V34.119a8.829,8.829,0,0,1-1.791,5.915,7.573,7.573,0,0,1-10.446-.027Zm6.24-3.785a5.132,5.132,0,0,0,.258-1.845V20.526a3.973,3.973,0,0,0-.244-1.506.991.991,0,0,0-1-.583c-.95,0-1.424.719-1.424,2.143V34.417a4.335,4.335,0,0,0,.3,1.845,1.089,1.089,0,0,0,1.085.624,1,1,0,0,0,1.031-.665Z" transform="translate(51.302 -13.2)" fill="#fff"/>
    <path id="Pfad_14" data-name="Pfad 14" d="M155.88,13.42H164.6a5,5,0,0,1,3.229.936A4.618,4.618,0,0,1,169.364,17a20.079,20.079,0,0,1,.393,4.341,9.082,9.082,0,0,1-.624,3.758,3.5,3.5,0,0,1-2.184,1.886,2.675,2.675,0,0,1,1.872,1.289,5.671,5.671,0,0,1,.583,2.767l-.068,10.731h-5.548v-11.1c0-.787-.149-1.3-.461-1.519a3.111,3.111,0,0,0-1.682-.326V41.773h-5.752V13.42Zm7.136,10.5c.787,0,1.194-.855,1.194-2.578a10.334,10.334,0,0,0-.095-1.682,1.216,1.216,0,0,0-.366-.773,1.153,1.153,0,0,0-.76-.217h-1.316v5.25h1.357Z" transform="translate(55.585 -13.122)" fill="#fff"/>
  </g>
  <g id="Layer_7" transform="translate(63.149)">
    <path id="Pfad_15" data-name="Pfad 15" d="M100.312,0C99.131,3.8,75.961,6.891,70.25,7.38,57,8.628,51.8,15.438,51.8,15.438h0A16.948,16.948,0,0,0,46.55,27.7a16.713,16.713,0,0,0,.977,5.671h0V33.4a16.617,16.617,0,0,0,.773,1.818q.59,1.343,1.262,2.686c1.723-4.734,9.13-20.01,34.01-24.174.2.068-22.031,4.138-30.754,30.184a176.107,176.107,0,0,0,13.756,19.82,135.47,135.47,0,0,0,14.977-22.8c-9.13,5.535-15.764,3.717-15.764,3.717v-.027C91.317,43.75,100.352.176,100.312,0Z" transform="translate(-46.55)" fill="#fff"/>
  </g>
</svg>
